<svg id="Layer_1" data-name="Layer 1" xmlns="http://www.w3.org/2000/svg" viewBox="0 0 95.6163 28.7072"><defs><style>.cls-1{fill:#673ab7;}.cls-2{fill:#f44336;}.cls-3{fill:#ffd740;}.cls-4{fill:#03dac6;}</style></defs><path class="cls-1" d="M31.728,18.1113A137.5215,137.5215,0,0,0,27.4058,32.21q-1.9776,7.39-1.8853,8.4326v1.6767q-.0462,1.1793-.8276,1.3155a17.4508,17.4508,0,0,1-3.9546-.7256q-3.4489-.8613-3.6787-1.4053a11.2508,11.2508,0,0,1-.0918-2.0859A55.0988,55.0988,0,0,1,14.99,28.13Q14.76,29.4,13.4268,34.749a28.2875,28.2875,0,0,0-1.0113,5.168q-.0468.9522-.0923,1.8584-.0922,1.2685-.8735,1.4961a2.7647,2.7647,0,0,1-.5976.0459,12.4077,12.4077,0,0,1-3.6788-.6348q-2.3913-.7266-2.851-1.7685a1.3286,1.3286,0,0,1-.0689-.77A3.87,3.87,0,0,0,4.1846,38.92q-.9661-5.0318-1.9317-10.019Q1.2877,23.6882.7358,18.3833.5975,16.9324.5977,16.751q0-1.8582,1.1958-1.8135A12.1078,12.1078,0,0,1,5.104,15.89q2.4829.9977,2.6211,1.587a7.9586,7.9586,0,0,1-.0918,1.9492q.2754,3.4914,1.4253,12.331l3.1728-14.915q.3678-1.6318,1.4253-1.8589a10.7279,10.7279,0,0,1,2.7823,1.1109q2.414,1.1557,2.414,1.5639a128.8476,128.8476,0,0,0,2.023,14.0991q2.7129-13.0561,3.6328-15.1416.3677-1.7226,1.8393-1.4961a10.0276,10.0276,0,0,1,2.897.9971Q31.4057,17.1145,31.728,18.1113Z" transform="translate(-0.5977 -14.9365)"/><path class="cls-2" d="M51.9141,34.1143q.416.68-1.793,4.0351A14.7386,14.7386,0,0,1,45.4312,43a1.9453,1.9453,0,0,1-.8277.1357,14.1307,14.1307,0,0,1-4.69-1.0878A8.8275,8.8275,0,0,1,35.8667,39.69q-2.6675-3.4-2.667-9.43a20.8906,20.8906,0,0,1,2.3452-10.0644q2.5284-4.76,6.4375-4.8506a9.1913,9.1913,0,0,1,3.4488.7256,11.3529,11.3529,0,0,1,4.0922,2.584,5.663,5.663,0,0,1,.7813,2.4477,20.5862,20.5862,0,0,1,.4609,4.2617q0,3.0836-1.0117,4.2613a36.3984,36.3984,0,0,1-9.6567,1.6777,15.7261,15.7261,0,0,0,.5517,4.669q.6431,2.4492,1.3335,2.4941.9192.0455,2.2071-1.4961a6.6709,6.6709,0,0,0,1.4252-2.2217,22.412,22.412,0,0,1,.8741-2.8105,7.8251,7.8251,0,0,1,2.896.7246A5.4415,5.4415,0,0,1,51.9141,34.1143ZM43.73,20.2417q-.7823-.09-2.1841,2.4482a12.6809,12.6809,0,0,0-1.6323,4.8506,5.9433,5.9433,0,0,0,3.31-.997q.7355-.5442.7359-4.5337Q43.96,20.3333,43.73,20.2417Z" transform="translate(-0.5977 -14.9365)"/><path class="cls-3" d="M74.0312,34.1143q.4146.68-1.7929,4.0351A14.7441,14.7441,0,0,1,67.5479,43a1.9448,1.9448,0,0,1-.8282.1357,14.1359,14.1359,0,0,1-4.69-1.0878A8.8281,8.8281,0,0,1,57.9834,39.69q-2.6675-3.4-2.667-9.43a20.8915,20.8915,0,0,1,2.3447-10.0644q2.5284-4.76,6.4375-4.8506a9.1917,9.1917,0,0,1,3.4493.7256,11.3637,11.3637,0,0,1,4.0927,2.584,5.663,5.663,0,0,1,.7813,2.4477,20.6521,20.6521,0,0,1,.46,4.2617q0,3.0836-1.0117,4.2613a36.3983,36.3983,0,0,1-9.6562,1.6777,15.7393,15.7393,0,0,0,.5517,4.669q.643,2.4492,1.333,2.4941.92.0455,2.208-1.4961a6.6751,6.6751,0,0,0,1.4248-2.2217,22.3294,22.3294,0,0,1,.8741-2.8105,7.829,7.829,0,0,1,2.8965.7246A5.4464,5.4464,0,0,1,74.0312,34.1143ZM65.8467,20.2417q-.7823-.09-2.1846,2.4482a12.6908,12.6908,0,0,0-1.6328,4.8506,5.9468,5.9468,0,0,0,3.3115-.997q.7339-.5442.7354-4.5337Q66.0762,20.3333,65.8467,20.2417Z" transform="translate(-0.5977 -14.9365)"/><path class="cls-4" d="M96.1484,34.1143q.4146.68-1.7929,4.0351A14.7443,14.7443,0,0,1,89.665,43a1.9443,1.9443,0,0,1-.8281.1357,14.1359,14.1359,0,0,1-4.69-1.0878A8.8275,8.8275,0,0,1,80.1006,39.69q-2.6675-3.4-2.667-9.43a20.89,20.89,0,0,1,2.3447-10.0644q2.5284-4.76,6.4375-4.8506a9.1908,9.1908,0,0,1,3.4492.7256,11.3632,11.3632,0,0,1,4.0928,2.584,5.663,5.663,0,0,1,.7813,2.4477,20.6521,20.6521,0,0,1,.46,4.2617q0,3.0836-1.0117,4.2613a36.3983,36.3983,0,0,1-9.6562,1.6777,15.7393,15.7393,0,0,0,.5517,4.669q.643,2.4492,1.333,2.4941.92.0455,2.208-1.4961a6.6767,6.6767,0,0,0,1.4248-2.2217,22.3294,22.3294,0,0,1,.8741-2.8105,7.8282,7.8282,0,0,1,2.8964.7246A5.4469,5.4469,0,0,1,96.1484,34.1143ZM87.9639,20.2417q-.7822-.09-2.1846,2.4482a12.6908,12.6908,0,0,0-1.6328,4.8506,5.9468,5.9468,0,0,0,3.3115-.997q.7339-.5442.7354-4.5337Q88.1934,20.3333,87.9639,20.2417Z" transform="translate(-0.5977 -14.9365)"/></svg>